<svg width="45" height="45" viewBox="0 0 45 45" fill="none" xmlns="http://www.w3.org/2000/svg">
<g opacity="0.3">
<path d="M22.5 7.03125C19.1624 7.03125 15.8998 8.02095 13.1248 9.8752C10.3497 11.7294 8.18677 14.365 6.90954 17.4485C5.63231 20.532 5.29813 23.925 5.94926 27.1984C6.60038 30.4718 8.20757 33.4787 10.5676 35.8387C12.9276 38.1987 15.9344 39.8059 19.2079 40.457C22.4813 41.1081 25.8743 40.7739 28.9578 39.4967C32.0413 38.2195 34.6768 36.0566 36.5311 33.2815C38.3853 30.5064 39.375 27.2438 39.375 23.9063C39.3699 19.4323 37.5904 15.143 34.4268 11.9795C31.2632 8.81591 26.974 7.03637 22.5 7.03125ZM22.5 37.9688C19.7187 37.9688 16.9999 37.144 14.6873 35.5988C12.3747 34.0536 10.5723 31.8573 9.50795 29.2877C8.44359 26.7182 8.16511 23.8907 8.70771 21.1628C9.25032 18.4349 10.5896 15.9292 12.5563 13.9626C14.523 11.9959 17.0287 10.6566 19.7566 10.114C22.4844 9.57135 25.3119 9.84984 27.8815 10.9142C30.4511 11.9786 32.6473 13.781 34.1925 16.0935C35.7378 18.4061 36.5625 21.125 36.5625 23.9063C36.5583 27.6346 35.0754 31.209 32.4391 33.8453C29.8027 36.4816 26.2283 37.9646 22.5 37.9688ZM30.5262 15.8801C30.6569 16.0107 30.7607 16.1658 30.8314 16.3365C30.9022 16.5072 30.9386 16.6902 30.9386 16.875C30.9386 17.0598 30.9022 17.2428 30.8314 17.4135C30.7607 17.5842 30.6569 17.7393 30.5262 17.8699L23.4949 24.9012C23.3643 25.0318 23.2092 25.1355 23.0385 25.2062C22.8677 25.2769 22.6848 25.3133 22.5 25.3133C22.3152 25.3133 22.1323 25.2769 21.9616 25.2062C21.7909 25.1355 21.6357 25.0318 21.5051 24.9012C21.3744 24.7705 21.2708 24.6154 21.2001 24.4447C21.1294 24.274 21.093 24.091 21.093 23.9063C21.093 23.7215 21.1294 23.5385 21.2001 23.3678C21.2708 23.1971 21.3744 23.042 21.5051 22.9113L28.5363 15.8801C28.6669 15.7493 28.822 15.6456 28.9927 15.5748C29.1635 15.5041 29.3465 15.4676 29.5313 15.4676C29.7161 15.4676 29.8991 15.5041 30.0698 15.5748C30.2405 15.6456 30.3956 15.7493 30.5262 15.8801ZM16.875 2.8125C16.875 2.43954 17.0232 2.08185 17.2869 1.81813C17.5506 1.55441 17.9083 1.40625 18.2813 1.40625H26.7188C27.0917 1.40625 27.4494 1.55441 27.7131 1.81813C27.9769 2.08185 28.125 2.43954 28.125 2.8125C28.125 3.18546 27.9769 3.54315 27.7131 3.80687C27.4494 4.07059 27.0917 4.21875 26.7188 4.21875H18.2813C17.9083 4.21875 17.5506 4.07059 17.2869 3.80687C17.0232 3.54315 16.875 3.18546 16.875 2.8125Z" fill="#B3B3B3"/>
</g>
</svg>
