<svg width="40" height="40" viewBox="0 0 40 40" fill="none" xmlns="http://www.w3.org/2000/svg">
<path fill-rule="evenodd" clip-rule="evenodd" d="M19.9999 3.33325C19.5579 3.33325 19.134 3.50885 18.8214 3.82141C18.5089 4.13397 18.3333 4.55789 18.3333 4.99992C18.3333 5.44195 18.5089 5.86587 18.8214 6.17843C19.134 6.49099 19.5579 6.66659 19.9999 6.66659C22.9358 6.66717 25.7893 7.6367 28.1178 9.42474C30.4464 11.2128 32.1196 13.7194 32.8781 16.5556C33.6365 19.3917 33.4376 22.3989 32.3123 25.1106C31.187 27.8222 29.1982 30.0866 26.6545 31.5524C24.1108 33.0182 21.1544 33.6035 18.244 33.2175C15.3337 32.8314 12.6321 31.4956 10.5585 29.4173C8.48494 27.339 7.15526 24.6345 6.7758 21.7232C6.39635 18.812 6.98835 15.857 8.45993 13.3166L10.4883 15.3449C10.7213 15.5779 11.0183 15.7366 11.3415 15.8009C11.6648 15.8652 11.9999 15.8322 12.3044 15.7061C12.6089 15.5799 12.8691 15.3664 13.0523 15.0924C13.2354 14.8183 13.3332 14.4962 13.3333 14.1666V7.49992C13.3333 7.05789 13.1577 6.63397 12.8451 6.32141C12.5325 6.00885 12.1086 5.83325 11.6666 5.83325H4.99993C4.67035 5.83332 4.34819 5.93111 4.07417 6.11425C3.80015 6.29739 3.58659 6.55766 3.46047 6.86216C3.33435 7.16666 3.30135 7.50172 3.36563 7.82497C3.42991 8.14823 3.58858 8.44517 3.8216 8.67825L6.03827 10.8949C4.26902 13.6017 3.32886 16.7662 3.33327 19.9999C3.33327 29.2049 10.7949 36.6666 19.9999 36.6666C29.2049 36.6666 36.6666 29.2049 36.6666 19.9999C36.6666 10.7949 29.2049 3.33325 19.9999 3.33325Z" fill="#B3B3B3"/>
</svg>
