<svg width="115" height="115" viewBox="0 0 115 115" fill="none" xmlns="http://www.w3.org/2000/svg">
<path d="M4.90917 110.465C-1.27073 104.363 -1.33395 94.4063 4.76797 88.2264L87.2635 4.6766C93.3654 -1.5033 103.322 -1.56652 109.502 4.5354C115.682 10.6373 115.745 20.5937 109.643 26.7736L27.1474 110.323C21.0455 116.503 11.0891 116.567 4.90917 110.465Z" fill="#5333D8"/>
<path d="M4.5354 4.90541C10.6373 -1.27449 20.5937 -1.33771 26.7736 4.76421L110.323 87.2597C116.503 93.3616 116.567 103.318 110.465 109.498C104.363 115.678 94.4063 115.741 88.2264 109.639L4.6766 27.1436C-1.5033 21.0417 -1.56652 11.0853 4.5354 4.90541Z" fill="#5333D8"/>
</svg>
