<svg width="42" height="42" viewBox="0 0 42 42" fill="none" xmlns="http://www.w3.org/2000/svg">
<path d="M21 3.5C11.34 3.5 3.5 11.34 3.5 21C3.5 30.66 11.34 38.5 21 38.5C30.66 38.5 38.5 30.66 38.5 21C38.5 11.34 30.66 3.5 21 3.5ZM22.75 33.25H19.25V29.75H22.75V33.25ZM26.3725 19.6875L24.7975 21.2975C23.9225 22.19 23.2925 22.995 22.9775 24.255C22.8375 24.815 22.75 25.445 22.75 26.25H19.25V25.375C19.2493 24.4555 19.4297 23.5448 19.781 22.6951C20.1324 21.8453 20.6477 21.0731 21.2975 20.4225L23.4675 18.2175C24.2725 17.4475 24.6575 16.2925 24.43 15.0675C24.3087 14.4412 24.0176 13.8603 23.5887 13.3881C23.1597 12.916 22.6093 12.5707 21.9975 12.39C20.055 11.8475 18.2525 12.95 17.675 14.6125C17.465 15.26 16.9225 15.75 16.24 15.75H15.715C14.7 15.75 14 14.77 14.28 13.79C14.6557 12.5135 15.3866 11.3702 16.3874 10.4933C17.3882 9.61644 18.6177 9.04218 19.9325 8.8375C22.5925 8.4175 25.13 9.8 26.705 11.9875C28.77 14.84 28.1575 17.9025 26.3725 19.6875Z" fill="#484848"/>
</svg>
